<svg xmlns="http://www.w3.org/2000/svg" viewBox="0 0 300 260">
  <rect width="300" height="260" fill="#2b2b2b"/>
  <g fill="#111"><rect x="0" y="0" width="300" height="34"/><rect x="0" y="226" width="300" height="34"/></g>
  <g fill="#ddd"><rect x="10" y="10" width="18" height="14" rx="2"/><rect x="50" y="10" width="18" height="14" rx="2"/><rect x="90" y="10" width="18" height="14" rx="2"/><rect x="130" y="10" width="18" height="14" rx="2"/><rect x="170" y="10" width="18" height="14" rx="2"/><rect x="210" y="10" width="18" height="14" rx="2"/><rect x="250" y="10" width="18" height="14" rx="2"/>
  <rect x="10" y="236" width="18" height="14" rx="2"/><rect x="50" y="236" width="18" height="14" rx="2"/><rect x="90" y="236" width="18" height="14" rx="2"/><rect x="130" y="236" width="18" height="14" rx="2"/><rect x="170" y="236" width="18" height="14" rx="2"/><rect x="210" y="236" width="18" height="14" rx="2"/><rect x="250" y="236" width="18" height="14" rx="2"/></g>
  <g stroke="#111" stroke-width="3" stroke-linejoin="round">
    <path d="M70 120 L230 100 L234 124 L74 144 Z" fill="#f2f2f2"/>
    <path d="M90 118 L104 140 M124 114 L138 136 M158 110 L172 132 M192 106 L206 128" stroke-width="8" stroke="#222"/>
    <rect x="74" y="144" width="160" height="66" fill="#3a3a3a" stroke="#ddd"/>
  </g>
  <g font-family="Georgia, serif" fill="#f2f2f2" text-anchor="middle">
    <text x="154" y="172" font-size="15" font-style="italic">Roma città aperta</text>
    <text x="154" y="196" font-size="13">1945 · ROSSELLINI</text>
  </g>
</svg>
