<svg xmlns="http://www.w3.org/2000/svg" viewBox="0 0 320 220">
  <rect width="320" height="220" fill="#fdf3c8"/>
  <rect x="150" y="18" width="150" height="70" fill="#f6d77a" stroke="#333" stroke-width="3"/>
  <text x="225" y="62" text-anchor="middle" font-family="Arial Black, Arial" font-weight="900" font-size="24" fill="#c0392b">GIORGIA</text>
  <g stroke="#333" stroke-width="3" fill="#bbb"><rect x="30" y="20" width="26" height="36"/><rect x="70" y="20" width="26" height="36"/></g>
  <g fill="#ffe680" opacity=".7"><path d="M40 56 L10 140 L80 140 Z"/><path d="M84 56 L60 140 L120 140 Z"/></g>
  <g stroke="#333" stroke-width="2.5" stroke-linejoin="round" stroke-linecap="round">
    <circle cx="228" cy="110" r="10" fill="#e8c4a0"/><path d="M220 120 L236 120 L238 150 L218 150 Z" fill="#c0392b"/>
    <g fill="#9a9a9a"><circle cx="40" cy="170" r="22"/><circle cx="90" cy="160" r="22"/><circle cx="145" cy="168" r="22"/><circle cx="200" cy="162" r="22"/><circle cx="255" cy="170" r="22"/><circle cx="300" cy="164" r="22"/></g>
    <path d="M0 220 L0 186 C40 176 300 176 320 186 L320 220 Z" fill="#7f7f7f"/>
    <path d="M110 160 C120 110 140 100 150 92" fill="none" stroke-width="7"/>
    <path d="M150 168 C170 120 190 110 200 102" fill="none" stroke-width="7"/>
    <path d="M128 170 C120 150 128 130 150 132 C168 130 170 160 160 176" fill="#f2c94c"/>
  </g>
</svg>
