<svg xmlns="http://www.w3.org/2000/svg" viewBox="0 0 360 220"><rect width="360" height="220" fill="#efe2c8"/><rect y="150" width="360" height="70" fill="#b03a2e"/><g fill="#d8c7a0" stroke="#333" stroke-width="2"><rect x="20" y="20" width="20" height="130"/><rect x="80" y="20" width="20" height="130"/><rect x="320" y="20" width="20" height="130"/></g><g transform="translate(150 100) scale(0.9)" stroke="#333" stroke-width="2.5" stroke-linejoin="round">
<path d="M-22 60 C-22 20 22 20 22 60 Z" fill="#2e2e2e"/><rect x="-14" y="58" width="28" height="44" fill="#555"/>
<circle cx="0" cy="0" r="18" fill="#f0c9a6"/><path d="M-18 -4 C-18 -26 18 -26 18 -4 C10 -14 -10 -14 -18 -4Z" fill="#5a3a1a"/>
<circle cx="-6" cy="0" r="2" fill="#333"/><circle cx="6" cy="0" r="2" fill="#333"/><path d="M-6 8 C-2 12 2 12 6 8" fill="none"/></g><g transform="translate(200 100) scale(0.9)" stroke="#333" stroke-width="2.5" stroke-linejoin="round">
<path d="M-22 60 C-22 20 22 20 22 60 Z" fill="#fff"/><rect x="-14" y="58" width="28" height="44" fill="#555"/>
<circle cx="0" cy="0" r="18" fill="#f0c9a6"/><path d="M-18 -4 C-18 -26 18 -26 18 -4 C10 -14 -10 -14 -18 -4Z" fill="#222"/>
<circle cx="-6" cy="0" r="2" fill="#333"/><circle cx="6" cy="0" r="2" fill="#333"/><path d="M-6 8 C-2 12 2 12 6 8" fill="none"/></g><g transform="translate(270 90) scale(1)" stroke="#333" stroke-width="2.5" stroke-linejoin="round">
<path d="M-22 60 C-22 20 22 20 22 60 Z" fill="#2e7d32"/><rect x="-14" y="58" width="28" height="44" fill="#555"/>
<circle cx="0" cy="0" r="18" fill="#f0c9a6"/><path d="M-18 -4 C-18 -26 18 -26 18 -4 C10 -14 -10 -14 -18 -4Z" fill="#ccc"/>
<circle cx="-6" cy="0" r="2" fill="#333"/><circle cx="6" cy="0" r="2" fill="#333"/><path d="M-6 8 C-2 12 2 12 6 8" fill="none"/></g></svg>