<svg xmlns="http://www.w3.org/2000/svg" viewBox="0 0 300 240"><rect width="300" height="240" fill="#6a5040"/><g stroke="#222" stroke-width="5"><path d="M60 0 V240 M120 0 V240 M240 0 V240"/></g><g transform="translate(170 110) scale(1.6)" stroke="#333" stroke-width="2.5" stroke-linejoin="round">
<path d="M-22 60 C-22 20 22 20 22 60 Z" fill="#2e2e2e"/><rect x="-14" y="58" width="28" height="44" fill="#555"/>
<circle cx="0" cy="0" r="18" fill="#e8c8a8"/><path d="M-18 -4 C-18 -26 18 -26 18 -4 C10 -14 -10 -14 -18 -4Z" fill="#2e2e2e"/>
<circle cx="-6" cy="0" r="2" fill="#333"/><circle cx="6" cy="0" r="2" fill="#333"/><path d="M-6 8 C-2 12 2 12 6 8" fill="none"/><path d="M-20 -14 L20 -14 L16 -40 L-16 -40 Z" fill="#222"/><path d="M-26 -14 L26 -14" stroke-width="4"/></g></svg>